<?xml version="1.0" encoding="utf-8"?>
<svg width="18px" height="17px" viewbox="0 0 18 17" version="1.1" xmlns:xlink="http://www.w3.org/1999/xlink" xmlns="http://www.w3.org/2000/svg">
  <g id="carrinho">
    <path d="M17.9752 10.9595C17.8899 10.6758 17.6045 10.524 17.3414 10.6159L9.3772 13.4604C8.99918 12.8012 8.32469 12.3657 7.55384 12.3657C7.52419 12.3657 7.49454 12.3657 7.46489 12.3657C7.42783 12.3657 7.38707 12.3697 7.35001 12.3737L4.18878 2.11044C4.14801 1.97461 4.05536 1.86275 3.93677 1.79883L0.723653 0.0569874C0.47535 -0.0748493 0.175163 0.0290221 0.0528645 0.296691C-0.069434 0.564359 0.0269224 0.887958 0.275225 1.01979L3.30675 2.66176L6.40127 12.7293C6.24562 12.8372 6.10108 12.965 5.97137 13.1168C5.58224 13.5722 5.38211 14.1635 5.40435 14.7788C5.45253 16.0252 6.39386 17 7.55013 17C7.57978 17 7.60943 17 7.63908 17C8.82129 16.9481 9.74409 15.8694 9.69591 14.591C9.69591 14.559 9.69221 14.5231 9.6885 14.4911L17.6564 11.6466C17.9196 11.5507 18.0604 11.2431 17.9752 10.9595ZM7.59831 15.9173C6.96088 15.9453 6.43092 15.414 6.40497 14.7348C6.39386 14.4032 6.50133 14.0876 6.70887 13.8479C6.9164 13.6042 7.19806 13.4644 7.50566 13.4524C7.52048 13.4524 7.53901 13.4524 7.55384 13.4524C8.16904 13.4524 8.67305 13.9718 8.699 14.6389C8.72123 15.3141 8.22833 15.8894 7.59831 15.9173Z" id="Shape" fill="#000000" stroke="none" />
    <path d="M2.55235 11.6797C2.62277 11.9074 2.81918 12.0512 3.02672 12.0512C3.0786 12.0512 3.13049 12.0433 3.18237 12.0233L10.8761 9.27469C11.0021 9.23074 11.1058 9.13087 11.1651 9.00303C11.2244 8.87518 11.2355 8.72737 11.1948 8.59153L8.67098 0.369718C8.63021 0.233887 8.53757 0.122025 8.41897 0.0581044C8.30038 -0.00581644 8.16326 -0.0178016 8.03725 0.026144L4.19041 1.40444L4.19041 1.40444L4.19041 1.40444L0.343566 2.77873C0.0804393 2.87062 -0.0603893 3.17824 0.0248491 3.46189L2.55235 11.6797ZM4.03105 2.59496L4.64254 4.58849C4.71296 4.81621 4.90938 4.96003 5.11691 4.96003C5.1688 4.96003 5.22068 4.95204 5.27257 4.93207C5.53569 4.84018 5.67652 4.53256 5.59128 4.24891L4.97979 2.25538L7.87789 1.22066L10.0904 8.41975L3.34544 10.8288L1.13295 3.63368L4.03105 2.59496Z" transform="translate(5.913086 0.1706543)" id="Shape" fill="#000000" stroke="none" />
  </g>
</svg>