<?xml version="1.0" encoding="utf-8"?>
<svg width="18px" height="17px" viewbox="0 0 18 17" version="1.1" xmlns:xlink="http://www.w3.org/1999/xlink" xmlns="http://www.w3.org/2000/svg">
  <g id="carrinho">
    <path d="M17.9639 10.9473C17.8788 10.664 17.5936 10.5123 17.3306 10.6041L9.37135 13.4454C8.99357 12.787 8.3195 12.352 7.54913 12.352C7.5195 12.352 7.48987 12.352 7.46024 12.352C7.4232 12.352 7.38246 12.356 7.34542 12.36L4.18616 2.1081C4.14542 1.97242 4.05283 1.86068 3.93431 1.79683L0.723202 0.0569241C0.475054 -0.0747661 0.175054 0.0289898 0.0528315 0.296361C-0.0693907 0.563732 0.0269056 0.886971 0.275054 1.01866L3.30468 2.6588L6.39728 12.7151C6.24172 12.8229 6.09728 12.9506 5.96765 13.1022C5.57876 13.5572 5.37876 14.1478 5.40098 14.7623C5.44913 16.0074 6.38987 16.9811 7.54542 16.9811C7.57505 16.9811 7.60468 16.9811 7.63431 16.9811C8.81579 16.9292 9.73802 15.8518 9.68987 14.5748C9.68987 14.5428 9.68616 14.5069 9.68246 14.475L17.6454 11.6337C17.9084 11.5379 18.0491 11.2306 17.9639 10.9473ZM7.59377 15.8997C6.95673 15.9276 6.4271 15.3969 6.40117 14.7185C6.39006 14.3873 6.49747 14.072 6.70488 13.8326C6.91228 13.5891 7.19377 13.4495 7.50117 13.4375C7.51599 13.4375 7.53451 13.4375 7.54932 13.4375C8.16414 13.4375 8.66784 13.9563 8.69377 14.6227C8.71599 15.2971 8.2234 15.8718 7.59377 15.8997Z" id="Shape" fill="#00A3DA" stroke="none" />
    <path d="M2.55076 11.6667C2.62113 11.8942 2.81743 12.0379 3.02483 12.0379C3.07669 12.0379 3.12854 12.0299 3.18039 12.0099L10.8693 9.26438C10.9952 9.22048 11.0989 9.12072 11.1582 8.99302C11.2174 8.86532 11.2285 8.71766 11.1878 8.58198L8.66558 0.369307C8.62483 0.233627 8.53224 0.12189 8.41372 0.0580398C8.2952 -0.00580998 8.15817 -0.0177818 8.03224 0.0261149L4.1878 1.40288L4.1878 1.40288L4.1878 1.40288L0.343352 2.77565C0.0803891 2.86743 -0.0603516 3.17471 0.0248336 3.45804L2.55076 11.6667ZM4.02813 2.59201L4.63924 4.58332C4.70961 4.81079 4.90591 4.95445 5.11332 4.95445C5.16517 4.95445 5.21702 4.94647 5.26887 4.92652C5.53184 4.83473 5.67258 4.52745 5.58739 4.24412L4.97628 2.25281L7.87258 1.21924L10.0837 8.41032L3.34295 10.8167L1.13184 3.62957L4.02813 2.59201Z" transform="translate(5.9091797 0.17041016)" id="Shape" fill="#00A3DA" stroke="none" />
  </g>
</svg>