<?xml version="1.0" encoding="utf-8"?>
<svg width="32px" height="32px" viewbox="0 0 32 32" version="1.1" xmlns:xlink="http://www.w3.org/1999/xlink" xmlns="http://www.w3.org/2000/svg">
  <defs>
    <filter filterUnits="userSpaceOnUse" color-interpolation-filters="sRGB" id="filter_1">
      <feFlood flood-opacity="0" result="BackgroundImageFix" />
      <feColorMatrix in="SourceAlpha" type="matrix" values="0 0 0 0 0 0 0 0 0 0 0 0 0 0 0 0 0 0 127 0" />
      <feOffset dx="0" dy="0" />
      <feGaussianBlur stdDeviation="0.5" />
      <feColorMatrix type="matrix" values="0 0 0 0 0 0 0 0 0 0 0 0 0 0 0 0 0 0 0.24313726 0" />
      <feBlend mode="normal" in2="BackgroundImageFix" result="effect0_dropShadow" />
      <feBlend mode="normal" in="SourceGraphic" in2="effect0_dropShadow" result="shape" />
    </filter>
  </defs>
  <g id="Group-12" transform="translate(0.2998047 0.2998047)">
    <path d="M15.54 31.08C24.1225 31.08 31.08 24.1225 31.08 15.54C31.08 6.9575 24.1225 0 15.54 0C6.9575 0 0 6.9575 0 15.54C0 24.1225 6.9575 31.08 15.54 31.08Z" id="Oval-Copy-7" fill="#00A3DA" fill-rule="evenodd" stroke="none" filter="url(#filter_1)" />
    <g id="coracao-(1)" transform="translate(12.058594 12.100586)">
      <path d="M5.22477 0.00351628C4.6862 0.00351628 4.17719 0.200428 3.76669 0.559088C3.3562 0.196912 2.8439 0 2.30533 0C1.69123 0 1.11326 0.256688 0.676494 0.724353C0.239728 1.19202 0 1.81088 0 2.47194C0 3.12949 0.239728 3.75187 0.676494 4.21602L3.28067 7.00443C3.40874 7.14156 3.58279 7.21892 3.76669 7.21892C3.95059 7.21892 4.12136 7.14156 4.25272 7.00443L6.85361 4.21953C7.29037 3.75187 7.5301 3.133 7.5301 2.47194C7.5301 1.81088 7.29037 1.19202 6.85361 0.724353C6.42012 0.260205 5.84215 0.00351628 5.22477 0.00351628Z" id="Shape" fill="#FFFFFF" fill-rule="evenodd" stroke="none" />
    </g>
  </g>
</svg>