<?xml version="1.0" encoding="utf-8"?>
<svg width="19px" height="18px" viewbox="0 0 19 18" version="1.1" xmlns:xlink="http://www.w3.org/1999/xlink" xmlns="http://www.w3.org/2000/svg">
  <g id="coracao-(1)">
    <path d="M16.1969 2.60791C14.4025 0.925116 12.0255 0 9.5 0C6.97449 0 4.59753 0.925116 2.80309 2.60791C0.996914 4.30326 0 6.56791 0 8.97907C0 10.9381 0.684156 12.8512 1.93128 14.4042C3.1784 15.9572 3.11975 15.8233 4.59753 16.6688C6.07531 17.5144 7.7642 17.9581 9.5 17.9581C12.0255 17.9581 14.4025 17.033 16.1969 15.3502C18.0031 13.6549 19 11.3902 19 8.97907C19 6.56791 18.0031 4.30326 16.1969 2.60791ZM9.50021 16.9535C7.83477 16.9535 6.22016 16.5056 4.82448 15.6558C4.75411 15.6139 2.93621 14.1028 2.81893 13.9646C1.59136 12.5372 0.938477 10.8125 0.938477 8.97906C0.938477 4.57952 4.77757 1.00464 9.50021 1.00464C14.2228 1.00464 18.0619 4.58371 18.0619 8.97906C18.0619 13.3786 14.2228 16.9535 9.50021 16.9535Z" id="Shape" fill="#00A3DA" stroke="none" />
    <path d="M6.21996 0.00418605C5.57881 0.00418605 4.97284 0.238605 4.48416 0.665581C3.99547 0.234419 3.3856 0 2.74444 0C2.01337 0 1.32531 0.305581 0.80535 0.862326C0.285391 1.41907 0 2.15581 0 2.94279C0 3.72558 0.285391 4.46651 0.80535 5.01907L3.90556 8.3386C4.05802 8.50186 4.26523 8.59395 4.48416 8.59395C4.70309 8.59395 4.90638 8.50186 5.06276 8.3386L8.15905 5.02326C8.67901 4.46651 8.9644 3.72977 8.9644 2.94279C8.9644 2.15581 8.67901 1.41907 8.15905 0.862326C7.643 0.309767 6.95494 0.00418605 6.21996 0.00418605ZM7.49465 4.3158L4.48436 7.53906L1.47407 4.30743C1.13395 3.94324 0.942383 3.45348 0.942383 2.93859C0.942383 2.42371 1.13004 1.93394 1.47016 1.56975C1.81028 1.20557 2.26378 1.00464 2.74465 1.00464C3.22942 1.00464 3.68292 1.20557 4.02304 1.57394L4.15205 1.71208C4.24197 1.80836 4.35925 1.85859 4.48436 1.85859C4.60946 1.85859 4.72674 1.80417 4.81666 1.71208L4.94177 1.57813C5.28189 1.20975 5.7393 1.00882 6.22016 1.00882C6.70102 1.00882 7.15452 1.20975 7.49856 1.57394C7.83868 1.93813 8.02633 2.42789 8.02633 2.94278C8.02633 3.46185 7.83868 3.94743 7.49465 4.3158Z" transform="translate(5.015625 5.194824)" id="Shape" fill="#00A3DA" stroke="none" />
  </g>
</svg>