<?xml version="1.0" encoding="utf-8"?>
<svg width="19px" height="18px" viewbox="0 0 19 18" version="1.1" xmlns:xlink="http://www.w3.org/1999/xlink" xmlns="http://www.w3.org/2000/svg">
  <g id="coracao-(1)">
    <path d="M16.1969 2.60791C14.4025 0.925116 12.0255 0 9.5 0C6.97449 0 4.59753 0.925116 2.80309 2.60791C0.996914 4.30326 0 6.56791 0 8.97907C0 10.9381 0.684156 12.8512 1.93128 14.4042C3.1784 15.9572 3.11975 15.8233 4.59753 16.6688C6.07531 17.5144 7.7642 17.9581 9.5 17.9581C12.0255 17.9581 14.4025 17.033 16.1969 15.3502C18.0031 13.6549 19 11.3902 19 8.97907C19 6.56791 18.0031 4.30326 16.1969 2.60791ZM9.5 16.9535C7.83457 16.9535 6.21996 16.5056 4.82428 15.6558C4.75391 15.614 2.93601 14.1028 2.81872 13.9647C1.59115 12.5372 0.938272 10.8126 0.938272 8.97907C0.938272 4.57954 4.77737 1.00465 9.5 1.00465C14.2226 1.00465 18.0617 4.58372 18.0617 8.97907C18.0617 13.3786 14.2226 16.9535 9.5 16.9535Z" id="Shape" fill="#000000" stroke="none" />
    <path d="M6.21996 0.00418605C5.57881 0.00418605 4.97284 0.238605 4.48416 0.665581C3.99547 0.234419 3.3856 0 2.74444 0C2.01337 0 1.32531 0.305581 0.80535 0.862326C0.285391 1.41907 0 2.15581 0 2.94279C0 3.72558 0.285391 4.46651 0.80535 5.01907L3.90556 8.3386C4.05802 8.50186 4.26523 8.59395 4.48416 8.59395C4.70309 8.59395 4.90638 8.50186 5.06276 8.3386L8.15905 5.02326C8.67901 4.46651 8.9644 3.72977 8.9644 2.94279C8.9644 2.15581 8.67901 1.41907 8.15905 0.862326C7.643 0.309767 6.95494 0.00418605 6.21996 0.00418605ZM7.49444 4.31581L4.48416 7.53907L1.47387 4.30744C1.13374 3.94326 0.942181 3.45349 0.942181 2.9386C0.942181 2.42372 1.12984 1.93395 1.46996 1.56977C1.81008 1.20558 2.26358 1.00465 2.74444 1.00465C3.22922 1.00465 3.68272 1.20558 4.02284 1.57395L4.15185 1.71209C4.24177 1.80837 4.35905 1.8586 4.48416 1.8586C4.60926 1.8586 4.72654 1.80419 4.81646 1.71209L4.94156 1.57814C5.28169 1.20977 5.73909 1.00884 6.21996 1.00884C6.70082 1.00884 7.15432 1.20977 7.49835 1.57395C7.83848 1.93814 8.02613 2.42791 8.02613 2.94279C8.02613 3.46186 7.83848 3.94744 7.49444 4.31581Z" transform="translate(5.015625 5.194824)" id="Shape" fill="#000000" stroke="none" />
  </g>
</svg>