<?xml version="1.0" encoding="utf-8"?>
<svg width="11px" height="20px" viewbox="0 0 11 20" version="1.1" xmlns:xlink="http://www.w3.org/1999/xlink" xmlns="http://www.w3.org/2000/svg">
  <g id="seta-para-baixo-copy" transform="matrix(-4.371139E-08 -1 1 -4.371139E-08 0 19.5)">
    <path d="M9.75036 7.80208L1.9366 0.318737C1.49397 -0.105223 0.789208 -0.105223 0.346546 0.318762C-0.115515 0.761327 -0.115515 1.4944 0.346546 1.93697L8.95498 10.1822C9.174 10.3898 9.45838 10.5 9.75041 10.5C10.0448 10.5 10.3315 10.3881 10.5478 10.1788L19.1535 1.93623C19.6155 1.49349 19.6155 0.760516 19.1535 0.317989C18.7108 -0.105996 18.006 -0.105996 17.5634 0.317989L9.75036 7.80208ZM9.50822 9.09322C9.57402 9.02955 9.66244 8.99504 9.75035 8.99504C9.83668 8.99504 9.92242 9.02828 9.98884 9.09122L9.74957 8.86206L9.50822 9.09322Z" id="Path" fill="#00A3DA" stroke="none" />
  </g>
</svg>