<?xml version="1.0" encoding="utf-8"?>
<svg width="10px" height="18px" viewbox="0 0 10 18" version="1.1" xmlns:xlink="http://www.w3.org/1999/xlink" xmlns="http://www.w3.org/2000/svg">
  <g id="facebook-(3)">
    <path d="M6.14726 18L3.33931 18C2.87029 18 2.48876 17.6083 2.48876 17.1269L2.48876 10.6252L0.850546 10.6252C0.381528 10.6252 0 10.2334 0 9.75201L0 6.96602C0 6.48454 0.381528 6.09288 0.850546 6.09288L2.48876 6.09288L2.48876 4.69775C2.48876 3.31444 2.9119 2.13753 3.71228 1.29446C4.51627 0.447556 5.63985 0 6.96155 0L9.10303 0.00357054C9.57125 0.00439453 9.95211 0.396057 9.95211 0.876709L9.95211 3.46344C9.95211 3.94492 9.57071 4.33658 9.10183 4.33658L7.66 4.33713C7.22028 4.33713 7.1083 4.42763 7.08436 4.45537C7.0449 4.50137 6.99794 4.63142 6.99794 4.99054L6.99794 6.09274L8.99347 6.09274C9.1437 6.09274 9.28925 6.13078 9.41433 6.20247C9.68416 6.35724 9.85191 6.64989 9.85191 6.96616L9.85084 9.75215C9.85084 10.2334 9.46931 10.625 9.00029 10.625L6.99794 10.625L6.99794 17.1269C6.99794 17.6083 6.61628 18 6.14726 18L6.14726 18ZM3.51708 16.9447L5.97026 16.9447L5.97026 10.1527C5.97026 9.83119 6.2251 9.56972 6.53814 9.56972L8.8233 9.56972L8.82423 7.14806L6.53801 7.14806C6.22497 7.14806 5.97026 6.88658 5.97026 6.56509L5.97026 4.99048C5.97026 4.57822 6.01106 4.10938 6.3142 3.75699C6.68048 3.33099 7.25772 3.28183 7.66012 3.28183L8.92456 3.28128L8.92456 1.05847L6.96114 1.05518C4.83705 1.05518 3.51708 2.45099 3.51708 4.69769L3.51708 6.56509C3.51708 6.88644 3.26237 7.14806 2.94934 7.14806L1.02832 7.14806L1.02832 9.56972L2.94934 9.56972C3.26237 9.56972 3.51708 9.83119 3.51708 10.1527L3.51708 16.9447Z" id="Shape" fill="#000000" stroke="none" />
  </g>
</svg>