<?xml version="1.0" encoding="utf-8"?>
<svg width="10px" height="18px" viewbox="0 0 10 18" version="1.1" xmlns:xlink="http://www.w3.org/1999/xlink" xmlns="http://www.w3.org/2000/svg">
  <g id="facebook-(3)">
    <path d="M6.17684 18L3.35538 18C2.8841 18 2.50074 17.6083 2.50074 17.1269L2.50074 10.6252L0.854639 10.6252C0.383364 10.6252 0 10.2334 0 9.75201L0 6.96602C0 6.48454 0.383364 6.09288 0.854639 6.09288L2.50074 6.09288L2.50074 4.69775C2.50074 3.31444 2.92591 2.13753 3.73014 1.29446C4.538 0.447556 5.66699 0 6.99505 0L9.14684 0.00357054C9.61731 0.00439453 10 0.396057 10 0.876709L10 3.46344C10 3.94492 9.61677 4.33658 9.14563 4.33658L7.69686 4.33713C7.25502 4.33713 7.14251 4.42763 7.11845 4.45537C7.0788 4.50137 7.03162 4.63142 7.03162 4.99054L7.03162 6.09274L9.03675 6.09274C9.1877 6.09274 9.33395 6.13078 9.45963 6.20247C9.73076 6.35724 9.89932 6.64989 9.89932 6.96616L9.89824 9.75215C9.89824 10.2334 9.51488 10.625 9.04361 10.625L7.03162 10.625L7.03162 17.1269C7.03162 17.6083 6.64812 18 6.17684 18L6.17684 18ZM3.53394 16.9447L5.99893 16.9447L5.99893 10.1527C5.99893 9.83119 6.255 9.56972 6.56954 9.56972L8.86569 9.56972L8.86663 7.14806L6.5694 7.14806C6.25486 7.14806 5.99893 6.88658 5.99893 6.56509L5.99893 4.99048C5.99893 4.57822 6.03992 4.10938 6.34452 3.75699C6.71256 3.33099 7.29258 3.28183 7.69691 3.28183L8.96745 3.28128L8.96745 1.05847L6.99457 1.05518C4.86026 1.05518 3.53394 2.45099 3.53394 4.69769L3.53394 6.56509C3.53394 6.88644 3.27801 7.14806 2.96347 7.14806L1.0332 7.14806L1.0332 9.56972L2.96347 9.56972C3.27801 9.56972 3.53394 9.83119 3.53394 10.1527L3.53394 16.9447Z" id="Shape" fill="#00A3DA" stroke="none" />
  </g>
</svg>