<?xml version="1.0" encoding="utf-8"?>
<svg width="18px" height="18px" viewbox="0 0 18 18" version="1.1" xmlns:xlink="http://www.w3.org/1999/xlink" xmlns="http://www.w3.org/2000/svg">
  <g id="instagram-(1)">
    <path d="M13.1276 0L4.87244 0C2.18573 0 0 2.18573 0 4.87244L0 13.1277C0 15.8143 2.18573 18 4.87244 18L13.1277 18C15.8143 18 18 15.8143 18 13.1277L18 4.87244C18 2.18573 15.8143 9.99201e-16 13.1276 0ZM16.9452 13.1276C16.9452 15.2323 15.2328 16.9447 13.128 16.9447L4.87286 16.9447C2.76802 16.9447 1.05566 15.2323 1.05566 13.1276L1.05566 4.87238C1.05566 2.76753 2.76802 1.05518 4.87286 1.05518L13.1281 1.05518C15.2328 1.05518 16.9452 2.76753 16.9452 4.87238L16.9452 13.1276Z" id="Shape" fill="#000000" stroke="none" />
    <path d="M4.92174 9.99201e-16C2.20784 9.99201e-16 0 2.20784 0 4.92174C0 7.63564 2.20784 9.84348 4.92174 9.84348C7.63564 9.84348 9.84348 7.63564 9.84348 4.92174C9.84348 2.20784 7.63564 0 4.92174 9.99201e-16ZM4.92216 8.78818C2.79027 8.78818 1.05566 7.05371 1.05566 4.92168C1.05566 2.78978 2.79027 1.05518 4.92216 1.05518C7.0542 1.05518 8.78867 2.78978 8.78867 4.92168C8.78867 7.05371 7.0542 8.78818 4.92216 8.78818Z" transform="translate(4.078125 4.078369)" id="Shape" fill="#000000" stroke="none" />
    <path d="M1.45432 0C0.652313 0 0 0.652451 0 1.45432C0 2.25632 0.652313 2.90877 1.45432 2.90877C2.25632 2.90877 2.90877 2.25632 2.90877 1.45432C2.90877 0.652313 2.25632 0 1.45432 0ZM1.45474 1.85333C1.23474 1.85333 1.05566 1.67426 1.05566 1.45425C1.05566 1.23412 1.23474 1.05518 1.45474 1.05518C1.67488 1.05518 1.85396 1.23412 1.85396 1.45425C1.85396 1.67426 1.67488 1.85333 1.45474 1.85333Z" transform="translate(12.584961 2.3303223)" id="Shape" fill="#000000" stroke="none" />
  </g>
</svg>