<?xml version="1.0" encoding="utf-8"?>
<svg width="14px" height="14px" viewbox="0 0 14 14" version="1.1" xmlns:xlink="http://www.w3.org/1999/xlink" xmlns="http://www.w3.org/2000/svg">
  <g id="lupa">
    <path d="M0 5.98073C0 2.68297 2.69033 0 5.9971 0C9.30386 0 11.9942 2.68297 11.9942 5.98073C11.9942 7.45576 11.456 8.80779 10.5651 9.85176L13.4552 12.7272C13.6475 12.9187 13.6483 13.2299 13.457 13.4224C13.3609 13.5189 13.2348 13.5672 13.1084 13.5672C12.9829 13.5672 12.8577 13.5196 12.7617 13.4242L9.86808 10.5453C8.8227 11.4283 7.47114 11.9615 5.9971 11.9615C2.69036 11.9615 0 9.27849 0 5.98073ZM9.57314 9.48039C9.55889 9.49182 9.54514 9.50415 9.53195 9.5174C9.52009 9.52933 9.50897 9.54171 9.49859 9.55449C8.59425 10.435 7.35814 10.9783 5.9971 10.9783C3.23236 10.9783 0.983131 8.73627 0.983131 5.98071C0.983131 3.22498 3.23236 0.983105 5.9971 0.983105C8.76183 0.983105 11.0111 3.22498 11.0111 5.98071C11.0111 7.34209 10.4621 8.57814 9.57314 9.48039Z" id="Combined-Shape" fill="#353535" fill-rule="evenodd" stroke="none" />
  </g>
</svg>