<?xml version="1.0" encoding="utf-8"?>
<svg width="14px" height="17px" viewbox="0 0 14 17" version="1.1" xmlns:xlink="http://www.w3.org/1999/xlink" xmlns="http://www.w3.org/2000/svg">
  <g id="do-utilizador-(2)">
    <path d="M4 8C5.09902 8 6.05055 7.60582 6.82825 6.82809C7.6057 6.05049 8 5.09905 8 3.99987C8 2.90107 7.60583 1.94951 6.82813 1.17166C6.05043 0.394184 5.09889 0 4 0C2.90086 0 1.94945 0.394184 1.17187 1.17178C0.394298 1.94938 0 2.90095 0 3.99987C0 5.09905 0.394298 6.05062 1.17187 6.82822C1.9497 7.60569 2.90124 8 4 8ZM1.86055 1.85984C2.45719 1.26318 3.1571 0.973145 4.00043 0.973145C4.84364 0.973145 5.54367 1.26318 6.14044 1.85984C6.73708 2.45662 7.02723 3.15668 7.02723 3.99978C7.02723 4.84314 6.73708 5.54307 6.14044 6.13986C5.54367 6.73665 4.84364 7.02668 4.00043 7.02668C3.15735 7.02668 2.45745 6.73652 1.86055 6.13986C1.26378 5.5432 0.973633 4.84314 0.973633 3.99978C0.973633 3.15668 1.26378 2.45662 1.86055 1.85984Z" transform="translate(3 0)" id="Shape" fill="#00A3DA" stroke="none" />
    <path d="M13.9661 4.97757C13.9434 4.63834 13.8976 4.26829 13.8301 3.87752C13.762 3.48383 13.6743 3.11166 13.5693 2.7715C13.4608 2.41991 13.3134 2.07271 13.131 1.73999C12.9419 1.39465 12.7196 1.09394 12.4702 0.846485C12.2094 0.587612 11.8902 0.379477 11.5209 0.22766C11.153 0.0766393 10.7452 0.000132815 10.3091 0.000132815C10.1378 0.000132815 9.97209 0.073053 9.65216 0.289157C9.45526 0.422379 9.22494 0.576455 8.96786 0.746868C8.74805 0.892177 8.45026 1.02832 8.08245 1.15158C7.72359 1.27205 7.35924 1.33315 6.99949 1.33315C6.63999 1.33315 6.27564 1.27205 5.91653 1.15158C5.5491 1.02845 5.25118 0.89231 5.03175 0.747C4.77711 0.578181 4.54666 0.424106 4.34682 0.289024C4.02714 0.0729202 3.86148 0 3.69018 0C3.25387 0 2.84624 0.0766393 2.47843 0.227793C2.10946 0.379344 1.79004 0.587479 1.529 0.846618C1.27961 1.0942 1.05736 1.39478 0.868391 1.73999C0.686212 2.07271 0.538727 2.41978 0.430163 2.77163C0.32531 3.11179 0.237614 3.48383 0.169505 3.87752C0.101908 4.26776 0.0562028 4.63794 0.0335425 4.97797C0.0112662 5.31042 0 5.65643 0 6.00602C0 6.9148 0.278453 7.65051 0.827551 8.1931C1.36986 8.72851 2.08731 9 2.96006 9L11.0399 9C11.9124 9 12.6299 8.72851 13.1723 8.1931C13.7215 7.65091 14 6.91493 14 6.00589C13.9999 5.6551 13.9885 5.3091 13.9661 4.97757L13.9661 4.97757ZM12.4943 7.45389C12.136 7.80773 11.6603 7.97974 11.0399 7.97974L2.9601 7.97974C2.33956 7.97974 1.86382 7.80773 1.50561 7.45402C1.15418 7.10696 0.983398 6.63317 0.983398 6.00598C0.983398 5.67977 0.993768 5.35767 1.01451 5.04845C1.03474 4.74509 1.07609 4.41183 1.13741 4.05772C1.19797 3.708 1.27504 3.37979 1.3667 3.08266C1.45466 2.79776 1.57462 2.51564 1.72338 2.24388C1.86536 1.98488 2.02872 1.76266 2.20898 1.58362C2.37759 1.41613 2.59011 1.27905 2.84052 1.17625C3.07212 1.08114 3.33239 1.02908 3.61494 1.02124C3.64938 1.04023 3.71071 1.07649 3.81005 1.1437C4.0122 1.28038 4.24521 1.43631 4.50279 1.60699C4.79315 1.79906 5.16724 1.97252 5.61418 2.12222C6.07109 2.27549 6.5371 2.35333 6.99966 2.35333C7.46221 2.35333 7.92835 2.27549 8.38501 2.12235C8.83233 1.97239 9.20629 1.79906 9.49703 1.60673C9.76064 1.43193 9.98711 1.28051 10.1893 1.1437C10.2886 1.07663 10.3499 1.04023 10.3844 1.02124C10.667 1.02908 10.9273 1.08114 11.159 1.17625C11.4093 1.27905 11.6219 1.41626 11.7905 1.58362C11.9707 1.76253 12.1341 1.98474 12.2761 2.24402C12.425 2.51564 12.545 2.79789 12.6329 3.08253C12.7247 3.38006 12.8019 3.70813 12.8623 4.05759C12.9235 4.41236 12.965 4.74575 12.9852 5.04859L12.9852 5.04885C13.0061 5.35687 13.0166 5.67884 13.0167 6.00598C13.0166 6.63331 12.8458 7.10696 12.4943 7.45389L12.4943 7.45389Z" transform="translate(0 8)" id="Shape" fill="#00A3DA" stroke="none" />
  </g>
</svg>