<?xml version="1.0" encoding="utf-8"?>
<svg width="14px" height="17px" viewbox="0 0 14 17" version="1.1" xmlns:xlink="http://www.w3.org/1999/xlink" xmlns="http://www.w3.org/2000/svg">
  <g id="do-utilizador-(2)">
    <path d="M4 8C5.09902 8 6.05055 7.60582 6.82825 6.82809C7.6057 6.05049 8 5.09905 8 3.99987C8 2.90107 7.60583 1.94951 6.82813 1.17166C6.05043 0.394184 5.09889 0 4 0C2.90086 0 1.94945 0.394184 1.17187 1.17178C0.394298 1.94938 0 2.90095 0 3.99987C0 5.09905 0.394298 6.05062 1.17187 6.82822C1.9497 7.60569 2.90124 8 4 8ZM1.86012 1.85993C2.45676 1.26326 3.15667 0.973233 4 0.973233C4.84321 0.973233 5.54324 1.26326 6.14001 1.85993C6.73665 2.45671 7.0268 3.15677 7.0268 3.99987C7.0268 4.84323 6.73665 5.54316 6.14001 6.13995C5.54324 6.73674 4.84321 7.02677 4 7.02677C3.15692 7.02677 2.45702 6.73661 1.86012 6.13995C1.26335 5.54329 0.973202 4.84323 0.973202 3.99987C0.973202 3.15677 1.26335 2.45671 1.86012 1.85993Z" transform="translate(3 0)" id="Shape" fill="#000000" stroke="none" />
    <path d="M13.9661 4.97757C13.9434 4.63834 13.8976 4.26829 13.8301 3.87752C13.762 3.48383 13.6743 3.11166 13.5693 2.7715C13.4608 2.41991 13.3134 2.07271 13.131 1.73999C12.9419 1.39465 12.7196 1.09394 12.4702 0.846485C12.2094 0.587612 11.8902 0.379477 11.5209 0.22766C11.153 0.0766393 10.7452 0.000132815 10.3091 0.000132815C10.1378 0.000132815 9.97209 0.073053 9.65216 0.289157C9.45526 0.422379 9.22494 0.576455 8.96786 0.746868C8.74805 0.892177 8.45026 1.02832 8.08245 1.15158C7.72359 1.27205 7.35924 1.33315 6.99949 1.33315C6.63999 1.33315 6.27564 1.27205 5.91653 1.15158C5.5491 1.02845 5.25118 0.89231 5.03175 0.747C4.77711 0.578181 4.54666 0.424106 4.34682 0.289024C4.02714 0.0729202 3.86148 0 3.69018 0C3.25387 0 2.84624 0.0766393 2.47843 0.227793C2.10946 0.379344 1.79004 0.587479 1.529 0.846618C1.27961 1.0942 1.05736 1.39478 0.868391 1.73999C0.686212 2.07271 0.538727 2.41978 0.430163 2.77163C0.32531 3.11179 0.237614 3.48383 0.169505 3.87752C0.101908 4.26776 0.0562028 4.63794 0.0335425 4.97797C0.0112662 5.31042 0 5.65643 0 6.00602C0 6.9148 0.278453 7.65051 0.827551 8.1931C1.36986 8.72851 2.08731 9 2.96006 9L11.0399 9C11.9124 9 12.6299 8.72851 13.1723 8.1931C13.7215 7.65091 14 6.91493 14 6.00589C13.9999 5.6551 13.9885 5.3091 13.9661 4.97757L13.9661 4.97757ZM12.4943 7.45393C12.136 7.80777 11.6602 7.97978 11.0398 7.97978L2.96006 7.97978C2.33952 7.97978 1.86378 7.80777 1.50557 7.45407C1.15414 7.107 0.983357 6.63321 0.983357 6.00602C0.983357 5.67981 0.993727 5.35771 1.01447 5.0485C1.03469 4.74513 1.07605 4.41187 1.13737 4.05776C1.19793 3.70804 1.275 3.37983 1.36666 3.0827C1.45462 2.7978 1.57457 2.51568 1.72334 2.24392C1.86532 1.98492 2.02868 1.7627 2.20894 1.58366C2.37754 1.41617 2.59007 1.27909 2.84048 1.17629C3.07208 1.08118 3.33235 1.02912 3.6149 1.02128C3.64934 1.04028 3.71066 1.07654 3.81001 1.14374C4.01216 1.28042 4.24517 1.43636 4.50275 1.60703C4.79311 1.7991 5.1672 1.97256 5.61413 2.12226C6.07105 2.27554 6.53706 2.35337 6.99962 2.35337C7.46217 2.35337 7.92831 2.27554 8.38497 2.12239C8.83229 1.97243 9.20625 1.7991 9.49699 1.60677C9.76059 1.43197 9.98707 1.28055 10.1892 1.14374C10.2886 1.07667 10.3499 1.04028 10.3843 1.02128C10.667 1.02912 10.9273 1.08118 11.159 1.17629C11.4093 1.27909 11.6218 1.4163 11.7904 1.58366C11.9707 1.76257 12.134 1.98478 12.276 2.24406C12.4249 2.51568 12.545 2.79793 12.6328 3.08257C12.7246 3.3801 12.8018 3.70817 12.8622 4.05763C12.9234 4.4124 12.9649 4.74579 12.9851 5.04863L12.9851 5.04889C13.006 5.35691 13.0165 5.67888 13.0166 6.00602C13.0165 6.63335 12.8457 7.107 12.4943 7.45393L12.4943 7.45393Z" transform="translate(0 8)" id="Shape" fill="#000000" stroke="none" />
  </g>
</svg>