<?xml version="1.0" encoding="utf-8"?>
<svg width="14px" height="18px" viewbox="0 0 14 18" version="1.1" xmlns:xlink="http://www.w3.org/1999/xlink" xmlns="http://www.w3.org/2000/svg">
  <path d="M13.9638 15.5715L12.9581 3.91983C12.9401 3.68926 12.7519 3.51446 12.524 3.51446L10.4041 3.51446C10.4005 1.57686 8.86667 0 6.98191 0C5.09716 0 3.56331 1.57686 3.55969 3.51446L1.43979 3.51446C1.2155 3.51446 1.02739 3.68926 1.00568 3.91983L0 15.5715C0 15.5864 0 15.5975 0 15.6124C0 16.9103 1.16124 17.9665 2.58656 17.9665L11.3773 17.9665C12.8026 17.9665 13.9638 16.9103 13.9638 15.6124C13.9638 15.5975 13.9638 15.5864 13.9638 15.5715ZM6.98174 0.892578C8.38898 0.892578 9.53213 2.06778 9.53574 3.51448L4.42773 3.51448C4.43135 2.06778 5.5745 0.892578 6.98174 0.892578ZM11.3772 17.0702L2.58651 17.0702C1.64594 17.0702 0.879017 16.4268 0.868164 15.6272L1.83767 4.40698L3.55964 4.40698L3.55964 5.97268C3.55964 6.21814 3.75499 6.41897 3.99375 6.41897C4.2325 6.41897 4.42785 6.21814 4.42785 5.97268L4.42785 4.40698L9.53586 4.40698L9.53586 5.97268C9.53586 6.21814 9.73121 6.41897 9.96997 6.41897C10.2087 6.41897 10.4041 6.21814 10.4041 5.97268L10.4041 4.40698L12.126 4.40698L13.0956 15.6309C13.0847 16.4268 12.3178 17.0702 11.3772 17.0702Z" id="Shape" fill="#000000" stroke="none" />
</svg>