<?xml version="1.0" encoding="utf-8"?>
<svg width="23px" height="16px" viewbox="0 0 23 16" version="1.1" xmlns:xlink="http://www.w3.org/1999/xlink" xmlns="http://www.w3.org/2000/svg">
  <g id="youtube-(1)">
    <path d="M6.21597 2.6599L1.32863 0.106373C1.04761 -0.04045 0.715455 -0.0349704 0.440008 0.120878C0.164391 0.276887 0 0.552483 0 0.858378L0 5.9216C0 6.22604 0.163378 6.50115 0.437138 6.65732C0.580094 6.73887 0.738578 6.77981 0.8974 6.77981C1.04289 6.77981 1.18871 6.74548 1.32289 6.6765L6.2104 4.16697C6.50053 4.01789 6.68163 3.72989 6.68298 3.41513C6.68417 3.10037 6.50526 2.81108 6.21597 2.6599L6.21597 2.6599ZM1.29639 5.28467L1.29639 1.50047L4.94912 3.409L1.29639 5.28467Z" transform="translate(8.251953 4.3950195)" id="Shape" fill="#000000" stroke="none" />
    <path d="M21.9595 3.7763L21.9585 3.76663C21.9398 3.5966 21.7533 2.08421 20.9833 1.31496C20.0933 0.41017 19.0844 0.300254 18.5991 0.247552C18.559 0.243201 18.5222 0.239172 18.4893 0.234981L18.4506 0.231113C15.526 0.0280431 11.1092 0.000322334 11.065 0.000161167L11.0611 0L11.0572 0.000161167C11.013 0.000322334 6.59623 0.0280431 3.6453 0.231113L3.60631 0.234981C3.57491 0.23901 3.54032 0.242717 3.50268 0.246908C3.02301 0.29977 2.02485 0.409847 1.13234 1.34735C0.398994 2.10838 0.187008 3.58838 0.165235 3.7547L0.162703 3.7763C0.156121 3.84705 0 5.53141 0 7.22237L0 8.80309C0 10.4941 0.156121 12.1784 0.162703 12.2493L0.163885 12.26C0.182619 12.4273 0.368952 13.9119 1.13538 14.6815C1.97219 15.556 3.03026 15.6717 3.59939 15.7339C3.68935 15.7437 3.76682 15.7521 3.81965 15.761L3.87078 15.7678C5.55942 15.9212 10.8539 15.9968 11.0783 15.9998L11.0851 16L11.0918 15.9998C11.1361 15.9997 15.5527 15.972 18.4773 15.7689L18.5159 15.765C18.5529 15.7603 18.5944 15.7562 18.64 15.7516C19.117 15.7033 20.1097 15.6029 20.9899 14.6781C21.7232 13.9169 21.9354 12.4369 21.957 12.2708L21.9595 12.2492C21.9661 12.1783 22.1224 10.4941 22.1224 8.80309L22.1224 7.22237C22.1222 5.53141 21.9661 3.84721 21.9595 3.7763L21.9595 3.7763ZM20.8258 8.80309C20.8258 10.3682 20.6827 11.98 20.6692 12.128C20.6142 12.5356 20.3906 13.4719 20.0333 13.8428C19.4824 14.4215 18.9164 14.4789 18.5033 14.5207C18.4533 14.5256 18.4071 14.5305 18.3652 14.5355C15.5365 14.7308 11.2864 14.7608 11.0907 14.7619C10.8711 14.7589 5.65411 14.6826 4.01695 14.5374C3.93306 14.5244 3.84243 14.5144 3.7469 14.5041C3.26234 14.451 2.59903 14.3785 2.08898 13.8428L2.077 13.8305C1.72594 13.4813 1.50872 12.6057 1.45353 12.1328C1.44323 12.021 1.29639 10.3901 1.29639 8.80309L1.29639 7.22237C1.29639 5.65905 1.43918 4.049 1.45302 3.89798C1.51868 3.41787 1.74653 2.53822 2.08898 2.18268C2.65675 1.58637 3.25542 1.52029 3.65137 1.47661C3.68918 1.47242 3.72445 1.46855 3.75703 1.46452C6.62695 1.26822 10.9075 1.23905 11.0611 1.23792C11.2147 1.23889 15.4938 1.26822 18.3382 1.46452C18.3731 1.46871 18.4113 1.4729 18.4523 1.47742C18.8596 1.52174 19.4751 1.58878 20.04 2.16415L20.0452 2.16947C20.3963 2.51872 20.6135 3.40965 20.6687 3.89202C20.6785 3.99758 20.8258 5.63198 20.8258 7.22237L20.8258 8.80309Z" id="Shape" fill="#000000" stroke="none" />
  </g>
</svg>