<?xml version="1.0" encoding="utf-8"?>
<svg width="18px" height="13px" viewbox="0 0 18 13" version="1.1" xmlns:xlink="http://www.w3.org/1999/xlink" xmlns="http://www.w3.org/2000/svg">
  <g id="youtube-(1)">
    <path d="M5.05766 2.16117L1.08105 0.086428C0.852395 -0.0328657 0.582134 -0.0284134 0.358014 0.0982133C0.133758 0.224971 0 0.448892 0 0.697432L0 4.8113C0 5.05866 0.132934 5.28219 0.35568 5.40907C0.471997 5.47533 0.600948 5.50859 0.730173 5.50859C0.84855 5.50859 0.967202 5.4807 1.07638 5.42466L5.05312 3.38566C5.28919 3.26454 5.43654 3.03053 5.43764 2.77479C5.4386 2.51905 5.29304 2.284 5.05766 2.16117L5.05766 2.16117ZM1.05469 4.2939L1.05469 1.21924L4.02674 2.76993L1.05469 4.2939Z" transform="translate(6.7128906 3.571045)" id="Shape" fill="#00A3DA" stroke="none" />
    <path d="M17.8675 3.06824L17.8667 3.06039C17.8514 2.92224 17.6997 1.69342 17.0732 1.06841C16.349 0.333263 15.5281 0.243956 15.1333 0.201136C15.1006 0.197601 15.0707 0.194327 15.0439 0.190922L15.0124 0.18778C12.6328 0.022785 9.03907 0.000261896 9.00309 0.000130948L8.99993 0L8.99677 0.000130948C8.96079 0.000261896 5.36705 0.022785 2.96601 0.18778L2.93429 0.190922C2.90875 0.194196 2.88059 0.197208 2.84997 0.200612C2.45968 0.243563 1.64752 0.333001 0.921334 1.09473C0.324644 1.71306 0.152159 2.91556 0.134444 3.0507L0.132384 3.06824C0.127028 3.12573 0 4.49427 0 5.86818L0 7.15251C0 8.52642 0.127028 9.89496 0.132384 9.95258L0.133346 9.96122C0.148589 10.0971 0.300199 11.3034 0.923806 11.9287C1.60468 12.6392 2.46559 12.7333 2.92866 12.7838C3.00185 12.7918 3.06489 12.7986 3.10787 12.8058L3.14948 12.8113C4.52345 12.936 8.83129 12.9974 9.01394 12.9999L9.01943 13L9.02493 12.9999C9.06091 12.9997 12.6545 12.9772 15.0341 12.8122L15.0656 12.8091C15.0956 12.8053 15.1294 12.8019 15.1665 12.7982C15.5546 12.7589 16.3624 12.6773 17.0785 11.926C17.6752 11.3075 17.8478 10.105 17.8654 9.96999L17.8675 9.95245C17.8728 9.89483 18 8.52642 18 7.15251L18 5.86818C17.9999 4.49427 17.8728 3.12586 17.8675 3.06824L17.8675 3.06824ZM16.9449 7.15256C16.9449 8.4242 16.8285 9.73381 16.8175 9.85402C16.7727 10.1852 16.5907 10.946 16.3 11.2473C15.8518 11.7175 15.3913 11.7642 15.0551 11.7981C15.0145 11.8021 14.9769 11.8061 14.9428 11.8101C12.6412 11.9688 9.18314 11.9932 9.02383 11.9941C8.84517 11.9916 4.60036 11.9297 3.26828 11.8117C3.20003 11.8011 3.12628 11.793 3.04855 11.7846C2.65428 11.7415 2.11459 11.6826 1.69958 11.2473L1.68983 11.2374C1.40419 10.9536 1.22745 10.2422 1.18254 9.85795C1.17416 9.76707 1.05469 8.44201 1.05469 7.15256L1.05469 5.86822C1.05469 4.59803 1.17087 3.28986 1.18213 3.16716C1.23555 2.77706 1.42094 2.06235 1.69958 1.77348C2.16155 1.28897 2.64865 1.23528 2.97083 1.19979C3.00159 1.19639 3.03029 1.19325 3.05679 1.18997C5.39192 1.03048 8.87483 1.00678 8.9998 1.00586C9.12477 1.00665 12.6064 1.03048 14.9208 1.18997C14.9493 1.19338 14.9803 1.19678 15.0137 1.20045C15.345 1.23646 15.8459 1.29093 16.3055 1.75842L16.3098 1.76274C16.5954 2.0465 16.7722 2.77038 16.8171 3.16231C16.825 3.24808 16.9449 4.57603 16.9449 5.86822L16.9449 7.15256Z" id="Shape" fill="#00A3DA" stroke="none" />
  </g>
</svg>